<mxfile host="app.diagrams.net" modified="2023-12-12T23:32:29.643Z" agent="Mozilla/5.0 (Windows NT 10.0; Win64; x64; rv:120.0) Gecko/20100101 Firefox/120.0" etag="_QYAB1_KJwst80sN-sMY" version="22.1.8" type="device">
  <diagram name="PÃ¡gina-1" id="tIl6muczCwVieNHmSgky">
    <mxGraphModel dx="925" dy="481" grid="1" gridSize="10" guides="1" tooltips="1" connect="1" arrows="1" fold="1" page="1" pageScale="1" pageWidth="827" pageHeight="1169" math="0" shadow="0">
      <root>
        <mxCell id="0" />
        <mxCell id="1" parent="0" />
        <mxCell id="eDEFyAuA9Izcxxq1QYmQ-42" style="edgeStyle=orthogonalEdgeStyle;rounded=0;orthogonalLoop=1;jettySize=auto;html=1;entryX=0;entryY=0.25;entryDx=0;entryDy=0;" edge="1" parent="1" source="eDEFyAuA9Izcxxq1QYmQ-3" target="eDEFyAuA9Izcxxq1QYmQ-4">
          <mxGeometry relative="1" as="geometry">
            <Array as="points">
              <mxPoint x="320" y="345" />
              <mxPoint x="320" y="345" />
            </Array>
          </mxGeometry>
        </mxCell>
        <mxCell id="eDEFyAuA9Izcxxq1QYmQ-44" value="Req" style="edgeLabel;html=1;align=center;verticalAlign=middle;resizable=0;points=[];" vertex="1" connectable="0" parent="eDEFyAuA9Izcxxq1QYmQ-42">
          <mxGeometry x="-0.0747" y="1" relative="1" as="geometry">
            <mxPoint as="offset" />
          </mxGeometry>
        </mxCell>
        <mxCell id="eDEFyAuA9Izcxxq1QYmQ-49" value="" style="edgeStyle=orthogonalEdgeStyle;rounded=0;orthogonalLoop=1;jettySize=auto;html=1;" edge="1" parent="1" source="eDEFyAuA9Izcxxq1QYmQ-3" target="eDEFyAuA9Izcxxq1QYmQ-32">
          <mxGeometry relative="1" as="geometry">
            <Array as="points">
              <mxPoint x="280" y="300" />
              <mxPoint x="280" y="300" />
            </Array>
          </mxGeometry>
        </mxCell>
        <mxCell id="eDEFyAuA9Izcxxq1QYmQ-51" value="Req" style="edgeLabel;html=1;align=center;verticalAlign=middle;resizable=0;points=[];" vertex="1" connectable="0" parent="eDEFyAuA9Izcxxq1QYmQ-49">
          <mxGeometry x="-0.0697" y="1" relative="1" as="geometry">
            <mxPoint as="offset" />
          </mxGeometry>
        </mxCell>
        <mxCell id="eDEFyAuA9Izcxxq1QYmQ-3" value="&lt;div&gt;Browser&lt;/div&gt;&lt;div&gt;(Chrome/Firefox)&lt;br&gt;&lt;/div&gt;" style="rounded=0;whiteSpace=wrap;html=1;fillColor=#dae8fc;strokeColor=#6c8ebf;" vertex="1" parent="1">
          <mxGeometry x="190" y="330" width="120" height="60" as="geometry" />
        </mxCell>
        <mxCell id="eDEFyAuA9Izcxxq1QYmQ-20" style="edgeStyle=orthogonalEdgeStyle;rounded=0;orthogonalLoop=1;jettySize=auto;html=1;entryX=0;entryY=0.5;entryDx=0;entryDy=0;exitX=0.25;exitY=0;exitDx=0;exitDy=0;" edge="1" parent="1" source="eDEFyAuA9Izcxxq1QYmQ-4" target="eDEFyAuA9Izcxxq1QYmQ-12">
          <mxGeometry relative="1" as="geometry">
            <mxPoint x="411" y="330" as="sourcePoint" />
            <Array as="points">
              <mxPoint x="440" y="330" />
              <mxPoint x="440" y="320" />
              <mxPoint x="504" y="320" />
              <mxPoint x="504" y="250" />
            </Array>
          </mxGeometry>
        </mxCell>
        <mxCell id="eDEFyAuA9Izcxxq1QYmQ-22" style="edgeStyle=orthogonalEdgeStyle;rounded=0;orthogonalLoop=1;jettySize=auto;html=1;entryX=0;entryY=0.5;entryDx=0;entryDy=0;" edge="1" parent="1" source="eDEFyAuA9Izcxxq1QYmQ-4" target="eDEFyAuA9Izcxxq1QYmQ-18">
          <mxGeometry relative="1" as="geometry">
            <mxPoint x="471" y="360" as="sourcePoint" />
          </mxGeometry>
        </mxCell>
        <mxCell id="eDEFyAuA9Izcxxq1QYmQ-12" value="&lt;div&gt;map_server&lt;/div&gt;&lt;div&gt;(Port: 5121)&lt;br&gt;&lt;/div&gt;" style="rounded=0;whiteSpace=wrap;html=1;fillColor=#e1d5e7;strokeColor=#9673a6;" vertex="1" parent="1">
          <mxGeometry x="537" y="220" width="120" height="60" as="geometry" />
        </mxCell>
        <mxCell id="eDEFyAuA9Izcxxq1QYmQ-28" style="edgeStyle=orthogonalEdgeStyle;rounded=0;orthogonalLoop=1;jettySize=auto;html=1;entryX=1;entryY=0.5;entryDx=0;entryDy=0;" edge="1" parent="1" source="eDEFyAuA9Izcxxq1QYmQ-16" target="eDEFyAuA9Izcxxq1QYmQ-19">
          <mxGeometry relative="1" as="geometry">
            <Array as="points">
              <mxPoint x="730" y="470" />
            </Array>
          </mxGeometry>
        </mxCell>
        <mxCell id="eDEFyAuA9Izcxxq1QYmQ-29" style="edgeStyle=orthogonalEdgeStyle;rounded=0;orthogonalLoop=1;jettySize=auto;html=1;entryX=1;entryY=0.5;entryDx=0;entryDy=0;" edge="1" parent="1" source="eDEFyAuA9Izcxxq1QYmQ-16" target="eDEFyAuA9Izcxxq1QYmQ-12">
          <mxGeometry relative="1" as="geometry">
            <Array as="points">
              <mxPoint x="730" y="250" />
            </Array>
          </mxGeometry>
        </mxCell>
        <mxCell id="eDEFyAuA9Izcxxq1QYmQ-30" style="edgeStyle=orthogonalEdgeStyle;rounded=0;orthogonalLoop=1;jettySize=auto;html=1;" edge="1" parent="1" source="eDEFyAuA9Izcxxq1QYmQ-16">
          <mxGeometry relative="1" as="geometry">
            <mxPoint x="656.9999999999999" y="359.99999999999994" as="targetPoint" />
            <Array as="points">
              <mxPoint x="737" y="360" />
              <mxPoint x="737" y="360" />
            </Array>
          </mxGeometry>
        </mxCell>
        <mxCell id="eDEFyAuA9Izcxxq1QYmQ-16" value="Database" style="shape=cylinder3;whiteSpace=wrap;html=1;boundedLbl=1;backgroundOutline=1;size=15;fillColor=#dae8fc;strokeColor=#6c8ebf;" vertex="1" parent="1">
          <mxGeometry x="700" y="310" width="60" height="80" as="geometry" />
        </mxCell>
        <mxCell id="eDEFyAuA9Izcxxq1QYmQ-31" style="edgeStyle=orthogonalEdgeStyle;rounded=0;orthogonalLoop=1;jettySize=auto;html=1;" edge="1" parent="1" source="eDEFyAuA9Izcxxq1QYmQ-18" target="eDEFyAuA9Izcxxq1QYmQ-4">
          <mxGeometry relative="1" as="geometry" />
        </mxCell>
        <mxCell id="eDEFyAuA9Izcxxq1QYmQ-18" value="login_server&lt;br&gt;(Port: 6900)" style="rounded=0;whiteSpace=wrap;html=1;fillColor=#e1d5e7;strokeColor=#9673a6;" vertex="1" parent="1">
          <mxGeometry x="537" y="330" width="120" height="60" as="geometry" />
        </mxCell>
        <mxCell id="eDEFyAuA9Izcxxq1QYmQ-19" value="char_server&lt;br&gt;(Port: 6121)" style="rounded=0;whiteSpace=wrap;html=1;fillColor=#e1d5e7;strokeColor=#9673a6;" vertex="1" parent="1">
          <mxGeometry x="537" y="440" width="120" height="60" as="geometry" />
        </mxCell>
        <mxCell id="eDEFyAuA9Izcxxq1QYmQ-21" style="edgeStyle=orthogonalEdgeStyle;rounded=0;orthogonalLoop=1;jettySize=auto;html=1;entryX=-0.006;entryY=0.531;entryDx=0;entryDy=0;entryPerimeter=0;exitX=0.339;exitY=0.928;exitDx=0;exitDy=0;exitPerimeter=0;" edge="1" parent="1" source="eDEFyAuA9Izcxxq1QYmQ-4" target="eDEFyAuA9Izcxxq1QYmQ-19">
          <mxGeometry relative="1" as="geometry">
            <mxPoint x="411" y="390" as="sourcePoint" />
            <Array as="points">
              <mxPoint x="440" y="386" />
              <mxPoint x="440" y="400" />
              <mxPoint x="504" y="400" />
              <mxPoint x="504" y="472" />
            </Array>
          </mxGeometry>
        </mxCell>
        <mxCell id="eDEFyAuA9Izcxxq1QYmQ-23" style="edgeStyle=orthogonalEdgeStyle;rounded=0;orthogonalLoop=1;jettySize=auto;html=1;entryX=0.5;entryY=0;entryDx=0;entryDy=0;entryPerimeter=0;" edge="1" parent="1" source="eDEFyAuA9Izcxxq1QYmQ-12" target="eDEFyAuA9Izcxxq1QYmQ-16">
          <mxGeometry relative="1" as="geometry" />
        </mxCell>
        <mxCell id="eDEFyAuA9Izcxxq1QYmQ-24" style="edgeStyle=orthogonalEdgeStyle;rounded=0;orthogonalLoop=1;jettySize=auto;html=1;entryX=0.047;entryY=0.614;entryDx=0;entryDy=0;entryPerimeter=0;" edge="1" parent="1" source="eDEFyAuA9Izcxxq1QYmQ-18" target="eDEFyAuA9Izcxxq1QYmQ-16">
          <mxGeometry relative="1" as="geometry">
            <mxPoint x="747" y="360" as="targetPoint" />
          </mxGeometry>
        </mxCell>
        <mxCell id="eDEFyAuA9Izcxxq1QYmQ-25" style="edgeStyle=orthogonalEdgeStyle;rounded=0;orthogonalLoop=1;jettySize=auto;html=1;entryX=0.5;entryY=1;entryDx=0;entryDy=0;entryPerimeter=0;" edge="1" parent="1" source="eDEFyAuA9Izcxxq1QYmQ-19" target="eDEFyAuA9Izcxxq1QYmQ-16">
          <mxGeometry relative="1" as="geometry" />
        </mxCell>
        <mxCell id="eDEFyAuA9Izcxxq1QYmQ-50" value="" style="edgeStyle=orthogonalEdgeStyle;rounded=0;orthogonalLoop=1;jettySize=auto;html=1;" edge="1" parent="1" source="eDEFyAuA9Izcxxq1QYmQ-32" target="eDEFyAuA9Izcxxq1QYmQ-3">
          <mxGeometry relative="1" as="geometry">
            <Array as="points">
              <mxPoint x="220" y="300" />
              <mxPoint x="220" y="300" />
            </Array>
          </mxGeometry>
        </mxCell>
        <mxCell id="eDEFyAuA9Izcxxq1QYmQ-52" value="Res" style="edgeLabel;html=1;align=center;verticalAlign=middle;resizable=0;points=[];" vertex="1" connectable="0" parent="eDEFyAuA9Izcxxq1QYmQ-50">
          <mxGeometry x="-0.111" relative="1" as="geometry">
            <mxPoint y="3" as="offset" />
          </mxGeometry>
        </mxCell>
        <mxCell id="eDEFyAuA9Izcxxq1QYmQ-32" value="RoBrowser Server&lt;br&gt;(Port: 80/8080)" style="rounded=0;whiteSpace=wrap;html=1;fillColor=#dae8fc;strokeColor=#6c8ebf;" vertex="1" parent="1">
          <mxGeometry x="190" y="220" width="120" height="60" as="geometry" />
        </mxCell>
        <mxCell id="eDEFyAuA9Izcxxq1QYmQ-43" style="edgeStyle=orthogonalEdgeStyle;rounded=0;orthogonalLoop=1;jettySize=auto;html=1;entryX=1;entryY=0.75;entryDx=0;entryDy=0;" edge="1" parent="1" source="eDEFyAuA9Izcxxq1QYmQ-4" target="eDEFyAuA9Izcxxq1QYmQ-3">
          <mxGeometry relative="1" as="geometry">
            <Array as="points">
              <mxPoint x="360" y="375" />
              <mxPoint x="360" y="375" />
            </Array>
          </mxGeometry>
        </mxCell>
        <mxCell id="eDEFyAuA9Izcxxq1QYmQ-45" value="Res" style="edgeLabel;html=1;align=center;verticalAlign=middle;resizable=0;points=[];" vertex="1" connectable="0" parent="eDEFyAuA9Izcxxq1QYmQ-43">
          <mxGeometry x="0.2286" y="1" relative="1" as="geometry">
            <mxPoint x="6" y="-3" as="offset" />
          </mxGeometry>
        </mxCell>
        <mxCell id="eDEFyAuA9Izcxxq1QYmQ-4" value="Proxy Server&lt;br&gt;(Port: 5999)" style="rounded=0;whiteSpace=wrap;html=1;fillColor=#ffe6cc;strokeColor=#d79b00;" vertex="1" parent="1">
          <mxGeometry x="380" y="330" width="120" height="60" as="geometry" />
        </mxCell>
      </root>
    </mxGraphModel>
  </diagram>
</mxfile>
